<?xml version="1.0" encoding="UTF-8"?>
<svg id="Camada_1" data-name="Camada 1" xmlns="http://www.w3.org/2000/svg" viewBox="0 0 1186 379">
  <defs>
    <style>
      .cls-1 {
        fill: #8c8b8d;
        font-family: MyriadPro-It, 'Myriad Pro';
        font-size: 53.68px;
        font-style: italic;
      }

      .cls-2 {
        fill: gray;
      }

      .cls-2, .cls-3 {
        fill-rule: evenodd;
      }

      .cls-2, .cls-3, .cls-4 {
        stroke-width: 0px;
      }

      .cls-5 {
        letter-spacing: 0em;
      }

      .cls-6 {
        letter-spacing: 0em;
      }

      .cls-7 {
        letter-spacing: 0em;
      }

      .cls-8 {
        letter-spacing: -.06em;
      }

      .cls-9 {
        letter-spacing: -.02em;
      }

      .cls-3 {
        fill: #262425;
      }

      .cls-4 {
        fill: #c3c6c7;
      }

      .cls-10 {
        letter-spacing: -.02em;
      }
    </style>
  </defs>
  <g>
    <path class="cls-4" d="m997.33,54.89H155.95c-56.27,0-101.89,45.62-101.89,101.89s45.62,101.89,101.89,101.89h841.39c56.27,0,101.89-45.62,101.89-101.89s-45.62-101.89-101.89-101.89"/>
    <path class="cls-3" d="m128.09,80.76v67.51h103.35c7.29-4.07,11.29-11.25,11.48-22.36v-22.5c-.83-13.82-9.99-21.96-22.85-22.67l-91.98.03Zm0,71.06v13.05h51.34v-5.76c5.98-.66,11.17,1.7,13.8,5.76h48.41c-1.89-5.23-6.03-10.04-12.83-13.05h-100.73Zm0,29.64h51.34v-13.05h-51.34v13.05Zm0,16.59h51.34v-13.05h-51.34v13.05Zm0,16.59h51.34v-13.05h-51.34v13.05Zm0,16.59h51.34v-13.05h-51.34v13.05Zm66.66-62.82c.2.85.31,1.75.32,2.67v10.37h47.8v-10.11c-.02-.98-.12-1.96-.29-2.94h-47.83Zm.32,29.64h47.8v-13.05h-47.8v13.05Zm0,16.59h47.8v-13.05h-47.8v13.05Zm0,16.59h47.8v-13.05h-47.8v13.05Zm-15.68-124.71v33.48c6.57,1.93,15.4-2.99,15.68-11.79v-9.32c-.2-8.51-7.31-13.1-15.68-12.36m318.93-25.75v30.11h-30.58v37.4h-51.51v-37.4h-30.5v-30.11h112.59Zm-30.58,84.1h-51.51v-13.05h51.51v13.05Zm0,16.59h-51.51v-13.05h51.51v13.05Zm0,16.59h-51.51v-13.05h51.51v13.05Zm0,16.59h-51.51v-13.05h51.51v13.05Zm0,16.59h-51.51v-13.05h51.51v13.05Zm138.29-150.39h-72.61c-12.63,0-22.97,10.34-22.97,22.97v44.47h51.12v-31.51c0-4.38,3.58-7.97,7.97-7.97s7.96,3.58,7.96,7.97v31.51h51.5v-44.47c0-12.63-10.34-22.97-22.97-22.97m-95.58,84.03h51.12v-13.05h-51.12v13.05Zm0,16.59h51.12v-13.05h-51.12v13.05Zm0,3.54v13.05h51.13c0-.07,0-.14,0-.21v-12.83h-51.12Zm0,16.59v6.69c0,2.21.32,4.34.9,6.36h116.74c.59-2.02.9-4.16.9-6.36v-6.69h-52.44c-1.35,2.5-3.99,4.21-7.02,4.21s-5.67-1.71-7.02-4.21h-52.07Zm2.26,16.59c3.6,7.47,11.13,12.73,19.86,13.05h74.3c8.73-.32,16.26-5.58,19.86-13.05h-114.03Zm116.29-20.13v-13.05h-51.5v12.83c0,.07,0,.14,0,.21h51.5Zm0-29.64h-51.5v13.05h51.5v-13.05Zm0-16.59h-51.5v13.05h51.5v-13.05Zm63.68-3.54h-51.55v-67.51h51.55v67.51Zm0,16.59h-51.55v-13.05h51.55v13.05Zm0,16.59h-51.55v-13.05h51.55v13.05Zm0,16.59h-51.55v-13.05h51.55v13.05Zm0,3.54v.02h31.33v13.03h-81.93c-.63-2.15-.96-4.47-.95-6.93v-6.11h51.55Zm31.33,16.59v13.05h-60.21c-8.55-.34-16.56-5.21-20.36-13.05h80.57Zm63.68-138.36l.07,68.45h-51.62v-68.45h51.55Zm.08,72l.02,13.05h-51.64v-13.05h51.63Zm.02,16.59l.02,13.05h-51.66v-13.05h51.65Zm.02,16.59v13.05s-51.67,0-51.67,0v-13.05h51.67Zm.02,16.59v13.05s-50.73,0-50.73,0c-.63-2.15-.96-4.47-.95-6.93v-6.11h51.68Zm.02,16.59v13.05s-29.02,0-29.02,0c-8.55-.34-16.56-5.21-20.36-13.05h49.39Zm127.2-138.36v68.45h-115.05v-68.45h27.98c10.62.32,17.39,6.04,21.19,14.3l22.81,53.46v-67.77h43.07Zm0,85.04h-115.05v-13.05h115.05v13.05Zm0,3.54v13.05h-66.25l-5.73-13.05h71.98Zm0,16.59v13.05h-58.96l-5.73-13.05h64.69Zm0,16.59v13.05h-51.67l-5.73-13.05h57.41Zm0,16.59v13.05h-29.85c-8.57-.45-15.92-4.22-20.25-13.05h50.1Zm-71.98-36.72h-43.07v-13.05h43.07v13.05Zm0,16.59h-43.07v-13.05h43.07v13.05Zm0,16.59h-43.07v-13.05h43.07v13.05Zm0,16.59h-43.07v-13.05h43.07v13.05Zm84.11-151.4h85.93v30.11h-34.38v25.14h32.17v13.2h-83.72v-68.45Zm83.72,85.04h-83.72v-13.05h83.72v13.05Zm-32.17,16.59h-51.55v-13.05h51.55v13.05Zm0,16.59h-51.55v-13.05h51.55v13.05Zm0,3.54h0s37.81,0,37.81,0v13.04h-88.46c-.6-2.13-.92-4.43-.9-6.89v-6.16h51.55Zm37.81,16.59v13.05h-66.85c-8.59-.3-16.55-5.15-20.29-13.05h87.14ZM350.63,80.83h-72.61c-12.63,0-22.97,10.34-22.97,22.97v44.47h51.12v-31.51c0-4.38,3.58-7.97,7.97-7.97s7.96,3.58,7.96,7.97v31.51h51.5v-44.47c0-12.63-10.34-22.97-22.97-22.97m-95.58,84.03h51.12v-13.05h-51.12v13.05Zm0,16.59h51.12v-13.05h-51.12v13.05Zm0,3.54v13.05h51.13c0-.07,0-.14,0-.21v-12.83h-51.12Zm0,16.59v6.69c0,2.21.32,4.34.9,6.36h116.74c.59-2.02.91-4.16.91-6.36v-6.69h-52.44c-1.35,2.5-3.99,4.21-7.02,4.21s-5.67-1.71-7.02-4.21h-52.07Zm2.26,16.59c3.6,7.47,11.13,12.73,19.86,13.05h74.3c8.73-.32,16.26-5.58,19.86-13.05h-114.03Zm116.29-20.13v-13.05h-51.5v12.83c0,.07,0,.14,0,.21h51.5Zm0-29.64h-51.5v13.05h51.5v-13.05Zm0-16.59h-51.5v13.05h51.5v-13.05Z"/>
    <path class="cls-2" d="m1109.55,70.32h-3.12v5.99h3.12c1.76,0,3-.22,3.71-.66.71-.44,1.07-1.19,1.07-2.24s-.38-1.88-1.13-2.36c-.75-.48-1.97-.72-3.65-.72m.47-1.7c2.34,0,4.08.38,5.21,1.13,1.13.75,1.69,1.91,1.69,3.48,0,1.17-.36,2.15-1.06,2.94-.71.8-1.67,1.28-2.87,1.44l3.72,7.69h-2.87l-3.52-7.33h-3.89v7.33h-2.51v-16.69h6.11Zm12.48,8.64c0-1.76-.32-3.43-.95-4.99-.63-1.57-1.54-2.95-2.73-4.14-1.24-1.23-2.64-2.17-4.22-2.81-1.57-.66-3.25-.98-5.01-.98s-3.34.32-4.88.94c-1.53.63-2.91,1.56-4.12,2.77-1.25,1.27-2.21,2.7-2.87,4.27-.67,1.57-1,3.21-1,4.91s.32,3.33.98,4.88c.66,1.55,1.59,2.95,2.82,4.18,1.23,1.23,2.63,2.17,4.19,2.81,1.55.66,3.19.98,4.89.98s3.36-.33,4.95-.99c1.59-.66,3.01-1.61,4.28-2.85,1.2-1.17,2.11-2.52,2.74-4.04.63-1.52.94-3.16.94-4.95m-12.91-14.55c2,0,3.88.37,5.64,1.09,1.76.73,3.32,1.78,4.67,3.16,1.34,1.34,2.38,2.9,3.09,4.66.72,1.76,1.08,3.62,1.08,5.58s-.35,3.83-1.06,5.56c-.7,1.73-1.74,3.26-3.11,4.6-1.41,1.4-3,2.47-4.78,3.21-1.78.75-3.62,1.12-5.53,1.12s-3.78-.36-5.53-1.1c-1.75-.73-3.31-1.8-4.68-3.19-1.38-1.37-2.44-2.93-3.17-4.68-.72-1.75-1.09-3.59-1.09-5.52s.37-3.74,1.12-5.52c.74-1.79,1.81-3.39,3.21-4.8,1.33-1.36,2.85-2.39,4.58-3.11,1.73-.71,3.58-1.06,5.54-1.06"/>
  </g>
  <text class="cls-1" transform="translate(228.62 310.69)"><tspan class="cls-8" x="0" y="0">T</tspan><tspan x="22.28" y="0">ecnol</tspan><tspan class="cls-6" x="138.28" y="0">o</tspan><tspan x="166.46" y="0">gia que molda a In</tspan><tspan class="cls-7" x="563.78" y="0">o</tspan><tspan class="cls-10" x="591.42" y="0">v</tspan><tspan x="614.94" y="0">a</tspan><tspan class="cls-9" x="642.96" y="0">ç</tspan><tspan class="cls-5" x="664.86" y="0">ão</tspan></text>
</svg>